HIERARCHY
ROOT Root
{
	OFFSET 0.00 0.00 0.00
	CHANNELS 6 Xposition Yposition Zposition Xrotation Yrotation Zrotation
	End Site
	{
		OFFSET 0.00000 14.53718 0.00000
	}
	End Site
	{
		OFFSET 0.00000 0.00000 8.69486
	}
	End Site
	{
		OFFSET -9.90396 0.00000 0.00000
	}
}
MOTION
Frames: 149
Frame Time: 0.008342
 3.2039 -11.8010 60.5880 -27.1980 -9.9058 -177.0164
 3.1632 -12.7254 60.5037 -28.4933 -10.0905 -176.7934
 3.1241 -13.6502 60.4002 -29.7856 -10.2849 -176.5738
 3.0866 -14.5763 60.2779 -31.0748 -10.4899 -176.3575
 3.0506 -15.5040 60.1368 -32.3611 -10.7052 -176.1444
 3.0164 -16.4336 59.9769 -33.6453 -10.9303 -175.9351
 2.9839 -17.3648 59.7980 -34.9282 -11.1639 -175.7302
 2.9532 -18.2966 59.5999 -36.2105 -11.4046 -175.5307
 2.9243 -19.2280 59.3826 -37.4923 -11.6508 -175.3379
 2.8972 -20.1575 59.1460 -38.7733 -11.9006 -175.1526
 2.8719 -21.0837 58.8900 -40.0529 -12.1522 -174.9758
 2.8483 -22.0053 58.6150 -41.3295 -12.4040 -174.8077
 2.8262 -22.9213 58.3212 -42.6016 -12.6546 -174.6482
 2.8057 -23.8315 58.0091 -43.8675 -12.9030 -174.4966
 2.7867 -24.7360 57.6791 -45.1254 -13.1488 -174.3515
 2.7692 -25.6357 57.3314 -46.3739 -13.3923 -174.2116
 2.7531 -26.5317 56.9665 -47.6119 -13.6345 -174.0753
 2.7388 -27.4252 56.5841 -48.8386 -13.8773 -173.9415
 2.7263 -28.3176 56.1843 -50.0534 -14.1228 -173.8097
 2.7160 -29.2096 55.7667 -51.2562 -14.3735 -173.6801
 2.7079 -30.1013 55.3306 -52.4467 -14.6315 -173.5540
 2.7022 -30.9922 54.8756 -53.6250 -14.8986 -173.4333
 2.6991 -31.8810 54.4012 -54.7909 -15.1750 -173.3206
 2.6984 -32.7655 53.9070 -55.9444 -15.4597 -173.2186
 2.6999 -33.6437 53.3929 -57.0854 -15.7502 -173.1296
 2.7034 -34.5131 52.8590 -58.2139 -16.0425 -173.0547
 2.7085 -35.3719 52.3060 -59.3298 -16.3319 -172.9939
 2.7149 -36.2191 51.7344 -60.4334 -16.6130 -172.9455
 2.7222 -37.0548 51.1451 -61.5247 -16.8814 -172.9060
 2.7302 -37.8800 50.5391 -62.6039 -17.1337 -172.8706
 2.7389 -38.6971 49.9169 -63.6710 -17.3688 -172.8338
 2.7485 -39.5091 49.2788 -64.7260 -17.5887 -172.7900
 2.7592 -40.3195 48.6249 -65.7685 -17.7976 -172.7351
 2.7715 -41.1314 47.9546 -66.7977 -18.0028 -172.6664
 2.7858 -41.9471 47.2667 -67.8125 -18.2134 -172.5846
 2.8023 -42.7672 46.5599 -68.8113 -18.4392 -172.4934
 2.8212 -43.5907 45.8327 -69.7928 -18.6897 -172.4003
 2.8423 -44.4140 45.0838 -70.7556 -18.9722 -172.3156
 2.8650 -45.2319 44.3123 -71.6992 -19.2908 -172.2525
 2.8883 -46.0369 43.5183 -72.6243 -19.6453 -172.2249
 2.9108 -46.8207 42.7030 -73.5330 -20.0306 -172.2469
 2.9308 -47.5745 41.8689 -74.4293 -20.4365 -172.3302
 2.9463 -48.2901 41.0201 -75.3186 -20.8490 -172.4832
 2.9555 -48.9608 40.1619 -76.2071 -21.2506 -172.7093
 2.9563 -49.5822 39.3011 -77.1014 -21.6225 -173.0063
 2.9473 -50.1528 38.4448 -78.0071 -21.9462 -173.3659
 2.9273 -50.6740 37.6009 -78.9287 -22.2055 -173.7745
 2.8957 -51.1504 36.7771 -79.8683 -22.3880 -174.2139
 2.8524 -51.5890 35.9805 -80.8253 -22.4863 -174.6633
 2.7981 -51.9984 35.2174 -81.7963 -22.4988 -175.1007
 2.7337 -52.3881 34.4928 -82.7753 -22.4292 -175.5052
 2.6606 -52.7674 33.8100 -83.7530 -22.2862 -175.8590
 2.5805 -53.1443 33.1709 -84.7175 -22.0818 -176.1480
 2.4949 -53.5247 32.5758 -85.6545 -21.8298 -176.3636
 2.4056 -53.9121 32.0233 -86.5474 -21.5436 -176.5023
 2.3136 -54.3069 31.5110 -87.3784 -21.2348 -176.5658
 2.2201 -54.7070 31.0355 -88.1294 -20.9114 -176.5603
 2.1254 -55.1080 30.5926 -88.7828 -20.5774 -176.4950
 2.0298 -55.5036 30.1782 -89.3232 -20.2321 -176.3810
 1.9331 -55.8870 29.7883 -89.7382 -19.8710 -176.2302
 1.8348 -56.2508 29.4192 -90.0193 -19.4869 -176.0535
 1.7345 -56.5889 29.0681 -90.1627 -19.0709 -175.8601
 1.6317 -56.8963 28.7324 -90.1691 -18.6145 -175.6572
 1.5264 -57.1698 28.4106 -90.0437 -18.1107 -175.4494
 1.4184 -57.4081 28.1017 -89.7957 -17.5555 -175.2392
 1.3080 -57.6122 27.8049 -89.4377 -16.9479 -175.0273
 1.1959 -57.7843 27.5201 -88.9843 -16.2906 -174.8135
 1.0828 -57.9281 27.2469 -88.4519 -15.5896 -174.5966
 0.9695 -58.0478 26.9854 -87.8567 -14.8532 -174.3761
 0.8570 -58.1478 26.7353 -87.2146 -14.0909 -174.1517
 0.7460 -58.2318 26.4964 -86.5398 -13.3126 -173.9239
 0.6373 -58.3029 26.2681 -85.8445 -12.5272 -173.6943
 0.5313 -58.3630 26.0500 -85.1386 -11.7420 -173.4653
 0.4283 -58.4130 25.8415 -84.4294 -10.9624 -173.2394
 0.3283 -58.4527 25.6421 -83.7219 -10.1911 -173.0196
 0.2315 -58.4813 25.4514 -83.0191 -9.4291 -172.8083
 0.1376 -58.4977 25.2692 -82.3227 -8.6757 -172.6072
 0.0464 -58.5007 25.0954 -81.6329 -7.9292 -172.4167
 -0.0420 -58.4896 24.9302 -80.9496 -7.1878 -172.2364
 -0.1278 -58.4643 24.7739 -80.2723 -6.4499 -172.0646
 -0.2109 -58.4253 24.6268 -79.6007 -5.7154 -171.8987
 -0.2911 -58.3743 24.4893 -78.9346 -4.9854 -171.7358
 -0.3681 -58.3130 24.3617 -78.2741 -4.2627 -171.5731
 -0.4415 -58.2439 24.2442 -77.6200 -3.5517 -171.4084
 -0.5108 -58.1696 24.1367 -76.9728 -2.8578 -171.2406
 -0.5753 -58.0926 24.0389 -76.3338 -2.1875 -171.0702
 -0.6346 -58.0150 23.9504 -75.7039 -1.5472 -170.8989
 -0.6880 -57.9383 23.8702 -75.0842 -0.9428 -170.7300
 -0.7350 -57.8636 23.7975 -74.4756 -0.3792 -170.5680
 -0.7754 -57.7912 23.7313 -73.8792 0.1404 -170.4177
 -0.8088 -57.7212 23.6704 -73.2956 0.6147 -170.2842
 -0.8355 -57.6530 23.6139 -72.7258 1.0445 -170.1715
 -0.8556 -57.5862 23.5609 -72.1704 1.4323 -170.0823
 -0.8697 -57.5202 23.5106 -71.6304 1.7823 -170.0176
 -0.8784 -57.4545 23.4626 -71.1068 2.0998 -169.9761
 -0.8829 -57.3891 23.4166 -70.6005 2.3903 -169.9545
 -0.8841 -57.3242 23.3725 -70.1128 2.6592 -169.9474
 -0.8832 -57.2603 23.3305 -69.6447 2.9107 -169.9482
 -0.8813 -57.1982 23.2908 -69.1975 3.1476 -169.9495
 -0.8793 -57.1389 23.2538 -68.7722 3.3710 -169.9444
 -0.8780 -57.0833 23.2197 -68.3702 3.5797 -169.9264
 -0.8780 -57.0324 23.1887 -67.9925 3.7711 -169.8913
 -0.8794 -56.9869 23.1611 -67.6404 3.9412 -169.8365
 -0.8821 -56.9472 23.1370 -67.3148 4.0855 -169.7626
 -0.8859 -56.9134 23.1162 -67.0168 4.1995 -169.6723
 -0.8901 -56.8854 23.0986 -66.7471 4.2796 -169.5709
 -0.8940 -56.8625 23.0837 -66.5064 4.3240 -169.4657
 -0.8968 -56.8441 23.0712 -66.2948 4.3329 -169.3649
 -0.8978 -56.8289 23.0604 -66.1124 4.3088 -169.2777
 -0.8961 -56.8159 23.0507 -65.9585 4.2568 -169.2130
 -0.8911 -56.8037 23.0414 -65.8322 4.1836 -169.1790
 -0.8821 -56.7911 23.0318 -65.7316 4.0972 -169.1828
 -0.8688 -56.7768 23.0210 -65.6537 4.0057 -169.2300
 -0.8506 -56.7596 23.0082 -65.5948 3.9169 -169.3246
 -0.8270 -56.7386 22.9924 -65.5495 3.8367 -169.4692
 -0.7976 -56.7126 22.9725 -65.5113 3.7688 -169.6651
 -0.7617 -56.6810 22.9478 -65.4725 3.7142 -169.9128
 -0.7188 -56.6432 22.9172 -65.4244 3.6709 -170.2117
 -0.6683 -56.5986 22.8801 -65.3575 3.6344 -170.5608
 -0.6096 -56.5471 22.8361 -65.2624 3.5982 -170.9584
 -0.5424 -56.4885 22.7852 -65.1299 3.5546 -171.4023
 -0.4665 -56.4230 22.7279 -64.9516 3.4957 -171.8892
 -0.3823 -56.3508 22.6651 -64.7206 3.4140 -172.4147
 -0.2904 -56.2723 22.5984 -64.4316 3.3039 -172.9728
 -0.1918 -56.1880 22.5300 -64.0813 3.1616 -173.5559
 -0.0880 -56.0984 22.4624 -63.6685 2.9860 -174.1546
 0.0191 -56.0040 22.3984 -63.1937 2.7784 -174.7583
 0.1274 -55.9053 22.3408 -62.6596 2.5424 -175.3554
 0.2348 -55.8028 22.2923 -62.0699 2.2833 -175.9342
 0.3393 -55.6967 22.2554 -61.4299 2.0073 -176.4839
 0.4390 -55.5874 22.2318 -60.7452 1.7212 -176.9956
 0.5327 -55.4748 22.2225 -60.0219 1.4309 -177.4631
 0.6196 -55.3591 22.2278 -59.2663 1.1411 -177.8839
 0.6998 -55.2399 22.2471 -58.4840 0.8553 -178.2592
 0.7736 -55.1171 22.2789 -57.6803 0.5746 -178.5939
 0.8424 -54.9903 22.3213 -56.8596 0.2986 -178.8964
 0.9075 -54.8590 22.3717 -56.0251 0.0257 -179.1773
 0.9706 -54.7227 22.4277 -55.1790 -0.2469 -179.4485
 1.0334 -54.5811 22.4865 -54.3226 -0.5222 -179.7215
 1.0971 -54.4338 22.5459 -53.4560 -0.8025 179.9938
 1.1626 -54.2804 22.6043 -52.5785 -1.0892 179.6903
 1.2302 -54.1210 22.6605 -51.6887 -1.3822 179.3648
 1.2994 -53.9555 22.7142 -50.7854 -1.6797 179.0182
 1.3690 -53.7844 22.7659 -49.8666 -1.9784 178.6557
 1.4377 -53.6082 22.8166 -48.9313 -2.2736 178.2863
 1.5034 -53.4276 22.8676 -47.9782 -2.5598 177.9215
 1.5641 -53.2435 22.9208 -47.0074 -2.8313 177.5741
 1.6178 -53.0571 22.9779 -46.0191 -3.0828 177.2567
 1.6631 -52.8696 23.0403 -45.0149 -3.3097 176.9804
